<svg class="plate" viewBox="20 52 160 96" xmlns="http://www.w3.org/2000/svg" role="img" aria-label="An eye at the centre of a globe, watched over by an orbiting ring of stars">
  <defs>
    <path id="starShape" d="M 0,-3.2 C 0.9,-0.9 0.9,-0.9 3.2,0 C 0.9,0.9 0.9,0.9 0,3.2 C -0.9,0.9 -0.9,0.9 -3.2,0 C -0.9,-0.9 -0.9,-0.9 0,-3.2 Z"/>
    <path id="orbit1PathCW" d="M 55 100 A 45 24 0 1 1 145 100 A 45 24 0 1 1 55 100 Z"/>
    <path id="orbit2PathCCW" d="M 62 100 A 38 20 0 1 0 138 100 A 38 20 0 1 0 62 100 Z"/>
    <path id="orbit3PathCCW" d="M 48 100 A 52 17 0 1 0 152 100 A 52 17 0 1 0 48 100 Z"/>
    <path id="orbit4PathCW" d="M 72 100 A 28 24 0 1 1 128 100 A 28 24 0 1 1 72 100 Z"/>
  </defs>

  <g fill="#A96F58">
    <use href="#starShape" x="155.15" y="131.11" opacity="0">
      <animate attributeName="opacity" values="0;1;1;0;0" keyTimes="0.0000;0.0641;0.4744;0.5385;1.0000" dur="7.8s" begin="0s" repeatCount="indefinite"/>
    </use>
    <use href="#starShape" x="44.85" y="131.11" transform="scale(0.85)" transform-origin="44.85 131.11" opacity="0">
      <animate attributeName="opacity" values="0;1;1;0;0" keyTimes="0.0000;0.0641;0.5385;0.6026;1.0000" dur="7.8s" begin="2s" repeatCount="indefinite"/>
    </use>
    <use href="#starShape" x="44.85" y="68.89" opacity="0">
      <animate attributeName="opacity" values="0;1;1;0;0" keyTimes="0.0000;0.0494;0.4691;0.5185;1.0000" dur="8.1s" begin="4s" repeatCount="indefinite"/>
    </use>
    <use href="#starShape" x="155.15" y="68.89" transform="scale(0.85)" transform-origin="155.15 68.89" opacity="0">
      <animate attributeName="opacity" values="0;1;1;0;0" keyTimes="0.0000;0.0779;0.4805;0.5584;1.0000" dur="7.7s" begin="6s" repeatCount="indefinite"/>
    </use>
  </g>

  <ellipse cx="100" cy="100" rx="45" ry="24" fill="none" stroke="#A96F58" stroke-width="0.3" stroke-dasharray="0.8 2.2">
    <animate attributeName="stroke-dashoffset" from="0" to="-221.82" dur="46s" repeatCount="indefinite"/>
  </ellipse>
  <ellipse cx="100" cy="100" rx="38" ry="20" transform="rotate(18 100 100)" fill="none" stroke="#A96F58" stroke-width="0.28" stroke-dasharray="0.6 2">
    <animate attributeName="stroke-dashoffset" from="0" to="186.63" dur="40s" repeatCount="indefinite"/>
  </ellipse>
  <ellipse cx="100" cy="100" rx="52" ry="17" transform="rotate(-25 100 100)" fill="none" stroke="#A96F58" stroke-width="0.28" stroke-dasharray="0.6 2">
    <animate attributeName="stroke-dashoffset" from="0" to="230.95" dur="52s" repeatCount="indefinite"/>
  </ellipse>
  <ellipse cx="100" cy="100" rx="28" ry="24" transform="rotate(50 100 100)" fill="none" stroke="#A96F58" stroke-width="0.28" stroke-dasharray="0.6 2">
    <animate attributeName="stroke-dashoffset" from="0" to="-163.60" dur="34s" repeatCount="indefinite"/>
  </ellipse>

  <g stroke="#A96F58" stroke-width="0.35">
    <line x1="66.13" y1="85.61" x2="64.84" y2="84.66"/>
    <line x1="90.38" y1="121.23" x2="90.88" y2="122.75"/>
  </g>

  <g transform="rotate(50 100 100)">
    <circle r="0.95" fill="#A96F58">
      <animateMotion dur="11s" repeatCount="indefinite" rotate="0"><mpath href="#orbit4PathCW"/></animateMotion>
    </circle>
  </g>
  <g transform="rotate(18 100 100)">
    <circle r="1.0" fill="#A96F58">
      <animateMotion dur="14s" repeatCount="indefinite" rotate="0"><mpath href="#orbit2PathCCW"/></animateMotion>
    </circle>
  </g>
  <g>
    <circle r="1.1" fill="#A96F58">
      <animateMotion dur="17s" repeatCount="indefinite" rotate="0"><mpath href="#orbit1PathCW"/></animateMotion>
    </circle>
  </g>
  <g transform="rotate(-25 100 100)">
    <circle r="1.1" fill="#A96F58">
      <animateMotion dur="20s" repeatCount="indefinite" rotate="0"><mpath href="#orbit3PathCCW"/></animateMotion>
    </circle>
  </g>

  <path id="orbitPath" d="M 30 100 A 70 38 0 1 1 170 100 A 70 38 0 1 1 30 100 Z"
        fill="none" stroke="#A96F58" stroke-width="0.5" stroke-dasharray="1.5 3">
    <animate attributeName="stroke-dashoffset" from="0" to="-346.78" dur="58s" repeatCount="indefinite"/>
  </path>

  <g stroke="#A96F58" stroke-width="0.4">
    <line x1="168.40" y1="100.00" x2="171.60" y2="100.00"/>
    <line x1="149.02" y1="125.99" x2="149.97" y2="127.75"/>
    <line x1="100.00" y1="136.40" x2="100.00" y2="139.60"/>
    <line x1="50.98" y1="125.99" x2="50.03" y2="127.75"/>
    <line x1="31.60" y1="100.00" x2="28.40" y2="100.00"/>
    <line x1="50.98" y1="74.01" x2="50.03" y2="72.25"/>
    <line x1="100.00" y1="63.60" x2="100.00" y2="60.40"/>
    <line x1="149.02" y1="74.01" x2="149.97" y2="72.25"/>
  </g>

  <g>
    <animateTransform attributeName="transform" type="rotate" from="0 100 100" to="360 100 100" dur="105s" repeatCount="indefinite"/>
    <g fill="#BCA063">
      <circle cx="118.50" cy="100.00" r="0.35"/>
      <circle cx="116.02" cy="109.25" r="0.35"/>
      <circle cx="109.25" cy="116.02" r="0.35"/>
      <circle cx="100.00" cy="118.50" r="0.35"/>
      <circle cx="90.75" cy="116.02" r="0.35"/>
      <circle cx="83.98" cy="109.25" r="0.35"/>
      <circle cx="81.50" cy="100.00" r="0.35"/>
      <circle cx="83.98" cy="90.75" r="0.35"/>
      <circle cx="90.75" cy="83.98" r="0.35"/>
      <circle cx="100.00" cy="81.50" r="0.35"/>
      <circle cx="109.25" cy="83.98" r="0.35"/>
      <circle cx="116.02" cy="90.75" r="0.35"/>
    </g>
    <circle cx="100" cy="100" r="18.5" fill="none" stroke="#BCA063" stroke-width="0.5"/>
    <circle cx="100" cy="100" r="13" fill="none" stroke="#BCA063" stroke-width="0.4"/>
  </g>

  <g fill="none" stroke="#BCA063" stroke-width="0.45">
    <animateTransform attributeName="transform" type="rotate" from="360 100 100" to="0 100 100" dur="130s" repeatCount="indefinite"/>
    <path d="M 100.00,85.00 L 112.99,107.50 L 87.01,107.50 Z"/>
    <path d="M 100.00,115.00 L 87.01,92.50 L 112.99,92.50 Z"/>
  </g>

  <circle cx="100" cy="100" r="2.4" fill="#B98A6E"/>

  <g>
    <g stroke="#A96F58" fill="none" stroke-linecap="round" stroke-linejoin="round">
      <g stroke-width="0.33">
        <line x1="-4.68" y1="1.76" x2="-7.24" y2="0.34"/>
        <line x1="-3.51" y1="0.27" x2="-5.61" y2="-1.77"/>
        <line x1="-2.34" y1="-0.81" x2="-3.83" y2="-3.32"/>
        <line x1="-1.17" y1="-1.44" x2="-1.94" y2="-4.26"/>
        <line x1="0.00" y1="-1.66" x2="0.00" y2="-4.58"/>
        <line x1="1.17" y1="-1.44" x2="1.94" y2="-4.26"/>
        <line x1="2.34" y1="-0.81" x2="3.83" y2="-3.32"/>
        <line x1="3.51" y1="0.27" x2="5.61" y2="-1.77"/>
        <line x1="4.68" y1="1.76" x2="7.24" y2="0.34"/>
      </g>
      <path stroke-width="0.6" d="M -5.362,2.827 Q -2.73,-1.463 0.0,-1.657 Q 2.73,-1.463 5.362,2.827 Q 2.73,4.388 0.0,4.583 Q -2.73,4.388 -5.362,2.827 Z"/>
      <path stroke-width="0.36" d="M -3.315,2.047 A 3.315,3.315 0 1,0 3.315,2.047 A 3.315,3.315 0 1,0 -3.315,2.047 Z"/>
      <path fill="#A96F58" stroke="none" fill-rule="evenodd" d="M -1.95,2.047 A 1.95,1.95 0 1,0 1.95,2.047 A 1.95,1.95 0 1,0 -1.95,2.047 Z M 0.098,1.268 A 0.585,0.585 0 1,0 1.268,1.268 A 0.585,0.585 0 1,0 0.098,1.268 Z"/>
    </g>
    <animateMotion dur="26s" repeatCount="indefinite" calcMode="linear" keyPoints="0.0000;0.0208;0.0417;0.0625;0.0833;0.1042;0.1250;0.1458;0.1667;0.1875;0.2083;0.2292;0.2500;0.2708;0.2917;0.3125;0.3333;0.3542;0.3750;0.3958;0.4167;0.4375;0.4583;0.4792;0.5000;0.5208;0.5417;0.5625;0.5833;0.6042;0.6250;0.6458;0.6667;0.6875;0.7083;0.7292;0.7500;0.7708;0.7917;0.8125;0.8333;0.8542;0.8750;0.8958;0.9167;0.9375;0.9583;0.9792;1.0000" keyTimes="0.0000;0.0421;0.0728;0.1024;0.1302;0.1519;0.1721;0.1871;0.2012;0.2174;0.2297;0.2414;0.2500;0.2615;0.2733;0.2857;0.3023;0.3165;0.3318;0.3523;0.3743;0.4024;0.4322;0.4632;0.5053;0.5421;0.5728;0.6024;0.6302;0.6519;0.6721;0.6871;0.7012;0.7174;0.7297;0.7414;0.7500;0.7615;0.7733;0.7857;0.8023;0.8165;0.8318;0.8523;0.8743;0.9024;0.9322;0.9632;1.0000" path="M 30 100 A 70 38 0 1 1 170 100 A 70 38 0 1 1 30 100 Z"/>
  </g>
</svg>